<?xml version="1.0" encoding="utf-8" ?>
<svg baseProfile="full" height="1164.3076923076924px" version="1.1" width="880px" xmlns="http://www.w3.org/2000/svg" xmlns:ev="http://www.w3.org/2001/xml-events" xmlns:xlink="http://www.w3.org/1999/xlink"><defs /><rect fill="rgb(255,200,200)" height="1164.3076923076924" width="880" x="0" y="0" /><polygon fill="black" points="0,0 110,110 0,110 0,0" /><polygon fill="black" points="110,0 220,110 220,0 110,0" /><polygon fill="black" points="220,0 330,110 330,0 220,0" /><polygon fill="black" points="330,0 440,110 440,0 330,0" /><polygon fill="black" points="440,0 550,110 550,0 440,0" /><polygon fill="black" points="550,0 660,110 660,0 550,0" /><polygon fill="black" points="660,0 770,110 660,110 660,0" /><polygon fill="black" points="770,0 880,110 770,110 770,0" /><polygon fill="black" points="0,110 110,220 0,220 0,110" /><polygon fill="black" points="110,110 220,220 220,110 110,110" /><polygon fill="black" points="220,110 330,220 220,220 220,110" /><polygon fill="black" points="330,110 440,220 440,110 330,110" /><polygon fill="black" points="440,110 550,220 550,110 440,110" /><polygon fill="black" points="550,110 660,220 550,220 550,110" /><polygon fill="black" points="660,110 770,220 770,110 660,110" /><polygon fill="black" points="770,110 880,220 770,220 770,110" /><polygon fill="black" points="0,220 110,330 0,330 0,220" /><polygon fill="black" points="110,220 220,330 110,330 110,220" /><polygon fill="black" points="220,220 330,330 220,330 220,220" /><polygon fill="black" points="330,220 440,330 330,330 330,220" /><polygon fill="black" points="440,220 550,330 440,330 440,220" /><polygon fill="black" points="550,220 660,330 660,220 550,220" /><polygon fill="black" points="660,220 770,330 660,330 660,220" /><polygon fill="black" points="770,220 880,330 880,220 770,220" /><polygon fill="black" points="0,330 110,440 110,330 0,330" /><polygon fill="black" points="110,330 220,440 110,440 110,330" /><polygon fill="black" points="220,330 330,440 330,330 220,330" /><polygon fill="black" points="330,330 440,440 440,330 330,330" /><polygon fill="black" points="440,330 550,440 550,330 440,330" /><polygon fill="black" points="550,330 660,440 550,440 550,330" /><polygon fill="black" points="660,330 770,440 660,440 660,330" /><polygon fill="black" points="770,330 880,440 770,440 770,330" /><polygon fill="black" points="0,440 110,550 0,550 0,440" /><polygon fill="black" points="110,440 220,550 220,440 110,440" /><polygon fill="black" points="220,440 330,550 330,440 220,440" /><polygon fill="black" points="330,440 440,550 440,440 330,440" /><polygon fill="black" points="440,440 550,550 550,440 440,440" /><polygon fill="black" points="550,440 660,550 550,550 550,440" /><polygon fill="black" points="660,440 770,550 770,440 660,440" /><polygon fill="black" points="770,440 880,550 880,440 770,440" /><polygon fill="black" points="0,550 110,660 110,550 0,550" /><polygon fill="black" points="110,550 220,660 220,550 110,550" /><polygon fill="black" points="220,550 330,660 330,550 220,550" /><polygon fill="black" points="330,550 440,660 440,550 330,550" /><polygon fill="black" points="440,550 550,660 550,550 440,550" /><polygon fill="black" points="550,550 660,660 550,660 550,550" /><polygon fill="black" points="660,550 770,660 770,550 660,550" /><polygon fill="black" points="770,550 880,660 880,550 770,550" /><polygon fill="black" points="0,660 110,770 0,770 0,660" /><polygon fill="black" points="110,660 220,770 110,770 110,660" /><polygon fill="black" points="220,660 330,770 220,770 220,660" /><polygon fill="black" points="330,660 440,770 440,660 330,660" /><polygon fill="black" points="440,660 550,770 550,660 440,660" /><polygon fill="black" points="550,660 660,770 550,770 550,660" /><polygon fill="black" points="660,660 770,770 770,660 660,660" /><polygon fill="black" points="770,660 880,770 880,660 770,660" /><polygon fill="black" points="0,770 110,880 110,770 0,770" /><polygon fill="black" points="110,770 220,880 220,770 110,770" /><polygon fill="black" points="220,770 330,880 220,880 220,770" /><polygon fill="black" points="330,770 440,880 330,880 330,770" /><polygon fill="black" points="440,770 550,880 550,770 440,770" /><polygon fill="black" points="550,770 660,880 550,880 550,770" /><polygon fill="black" points="660,770 770,880 660,880 660,770" /><polygon fill="black" points="770,770 880,880 880,770 770,770" /><polygon fill="black" points="0,880 110,990 0,990 0,880" /><polygon fill="black" points="110,880 220,990 220,880 110,880" /><polygon fill="black" points="220,880 330,990 220,990 220,880" /><polygon fill="black" points="330,880 440,990 330,990 330,880" /><polygon fill="black" points="440,880 550,990 550,880 440,880" /><polygon fill="black" points="550,880 660,990 550,990 550,880" /><polygon fill="black" points="660,880 770,990 770,880 660,880" /><polygon fill="black" points="770,880 880,990 770,990 770,880" /><polygon fill="black" points="0,990 110,1100 110,990 0,990" /><polygon fill="black" points="110,990 220,1100 110,1100 110,990" /><polygon fill="black" points="220,990 330,1100 220,1100 220,990" /><polygon fill="black" points="330,990 440,1100 440,990 330,990" /><polygon fill="black" points="440,990 550,1100 440,1100 440,990" /><polygon fill="black" points="550,990 660,1100 660,990 550,990" /><polygon fill="black" points="660,990 770,1100 660,1100 660,990" /><polygon fill="black" points="770,990 880,1100 770,1100 770,990" /></svg>