<?xml version="1.0" encoding="utf-8" ?>
<svg baseProfile="full" height="1164.3076923076924px" version="1.1" width="880px" xmlns="http://www.w3.org/2000/svg" xmlns:ev="http://www.w3.org/2001/xml-events" xmlns:xlink="http://www.w3.org/1999/xlink"><defs /><rect fill="rgb(255,255,255)" height="110px" stroke="black" stroke-width="1" width="110px" x="0" y="0" /><rect fill="rgb(255,255,255)" height="110px" stroke="black" stroke-width="1" width="110px" x="110" y="0" /><rect fill="rgb(255,255,255)" height="110px" stroke="black" stroke-width="1" width="110px" x="220" y="0" /><rect fill="rgb(255,255,255)" height="110px" stroke="black" stroke-width="1" width="110px" x="330" y="0" /><rect fill="rgb(255,255,255)" height="110px" stroke="black" stroke-width="1" width="110px" x="440" y="0" /><rect fill="rgb(255,255,255)" height="110px" stroke="black" stroke-width="1" width="110px" x="550" y="0" /><rect fill="rgb(255,255,255)" height="110px" stroke="black" stroke-width="1" width="110px" x="660" y="0" /><rect fill="rgb(255,255,255)" height="110px" stroke="black" stroke-width="1" width="110px" x="770" y="0" /><rect fill="rgb(0,0,0)" height="110px" stroke="black" stroke-width="1" width="110px" x="0" y="110" /><rect fill="rgb(0,0,0)" height="110px" stroke="black" stroke-width="1" width="110px" x="110" y="110" /><rect fill="rgb(0,0,0)" height="110px" stroke="black" stroke-width="1" width="110px" x="220" y="110" /><rect fill="rgb(0,0,0)" height="110px" stroke="black" stroke-width="1" width="110px" x="330" y="110" /><rect fill="rgb(0,0,0)" height="110px" stroke="black" stroke-width="1" width="110px" x="440" y="110" /><rect fill="rgb(0,0,0)" height="110px" stroke="black" stroke-width="1" width="110px" x="550" y="110" /><rect fill="rgb(0,0,0)" height="110px" stroke="black" stroke-width="1" width="110px" x="660" y="110" /><rect fill="rgb(0,0,0)" height="110px" stroke="black" stroke-width="1" width="110px" x="770" y="110" /><rect fill="rgb(255,255,255)" height="110px" stroke="black" stroke-width="1" width="110px" x="0" y="220" /><rect fill="rgb(255,255,255)" height="110px" stroke="black" stroke-width="1" width="110px" x="110" y="220" /><rect fill="rgb(255,255,255)" height="110px" stroke="black" stroke-width="1" width="110px" x="220" y="220" /><rect fill="rgb(255,255,255)" height="110px" stroke="black" stroke-width="1" width="110px" x="330" y="220" /><rect fill="rgb(255,255,255)" height="110px" stroke="black" stroke-width="1" width="110px" x="440" y="220" /><rect fill="rgb(255,255,255)" height="110px" stroke="black" stroke-width="1" width="110px" x="550" y="220" /><rect fill="rgb(255,255,255)" height="110px" stroke="black" stroke-width="1" width="110px" x="660" y="220" /><rect fill="rgb(255,255,255)" height="110px" stroke="black" stroke-width="1" width="110px" x="770" y="220" /><rect fill="rgb(255,255,255)" height="110px" stroke="black" stroke-width="1" width="110px" x="0" y="330" /><rect fill="rgb(255,255,255)" height="110px" stroke="black" stroke-width="1" width="110px" x="110" y="330" /><rect fill="rgb(255,255,255)" height="110px" stroke="black" stroke-width="1" width="110px" x="220" y="330" /><rect fill="rgb(255,255,255)" height="110px" stroke="black" stroke-width="1" width="110px" x="330" y="330" /><rect fill="rgb(255,255,255)" height="110px" stroke="black" stroke-width="1" width="110px" x="440" y="330" /><rect fill="rgb(255,255,255)" height="110px" stroke="black" stroke-width="1" width="110px" x="550" y="330" /><rect fill="rgb(255,255,255)" height="110px" stroke="black" stroke-width="1" width="110px" x="660" y="330" /><rect fill="rgb(255,255,255)" height="110px" stroke="black" stroke-width="1" width="110px" x="770" y="330" /><rect fill="rgb(0,0,0)" height="110px" stroke="black" stroke-width="1" width="110px" x="0" y="440" /><rect fill="rgb(0,0,0)" height="110px" stroke="black" stroke-width="1" width="110px" x="110" y="440" /><rect fill="rgb(0,0,0)" height="110px" stroke="black" stroke-width="1" width="110px" x="220" y="440" /><rect fill="rgb(0,0,0)" height="110px" stroke="black" stroke-width="1" width="110px" x="330" y="440" /><rect fill="rgb(0,0,0)" height="110px" stroke="black" stroke-width="1" width="110px" x="440" y="440" /><rect fill="rgb(0,0,0)" height="110px" stroke="black" stroke-width="1" width="110px" x="550" y="440" /><rect fill="rgb(0,0,0)" height="110px" stroke="black" stroke-width="1" width="110px" x="660" y="440" /><rect fill="rgb(0,0,0)" height="110px" stroke="black" stroke-width="1" width="110px" x="770" y="440" /><rect fill="rgb(255,255,255)" height="110px" stroke="black" stroke-width="1" width="110px" x="0" y="550" /><rect fill="rgb(255,255,255)" height="110px" stroke="black" stroke-width="1" width="110px" x="110" y="550" /><rect fill="rgb(255,255,255)" height="110px" stroke="black" stroke-width="1" width="110px" x="220" y="550" /><rect fill="rgb(255,255,255)" height="110px" stroke="black" stroke-width="1" width="110px" x="330" y="550" /><rect fill="rgb(0,0,0)" height="110px" stroke="black" stroke-width="1" width="110px" x="440" y="550" /><rect fill="rgb(0,0,0)" height="110px" stroke="black" stroke-width="1" width="110px" x="550" y="550" /><rect fill="rgb(0,0,0)" height="110px" stroke="black" stroke-width="1" width="110px" x="660" y="550" /><rect fill="rgb(0,0,0)" height="110px" stroke="black" stroke-width="1" width="110px" x="770" y="550" /><rect fill="rgb(255,255,255)" height="110px" stroke="black" stroke-width="1" width="110px" x="0" y="660" /><rect fill="rgb(255,255,255)" height="110px" stroke="black" stroke-width="1" width="110px" x="110" y="660" /><rect fill="rgb(255,255,255)" height="110px" stroke="black" stroke-width="1" width="110px" x="220" y="660" /><rect fill="rgb(255,255,255)" height="110px" stroke="black" stroke-width="1" width="110px" x="330" y="660" /><rect fill="rgb(0,0,0)" height="110px" stroke="black" stroke-width="1" width="110px" x="440" y="660" /><rect fill="rgb(0,0,0)" height="110px" stroke="black" stroke-width="1" width="110px" x="550" y="660" /><rect fill="rgb(0,0,0)" height="110px" stroke="black" stroke-width="1" width="110px" x="660" y="660" /><rect fill="rgb(0,0,0)" height="110px" stroke="black" stroke-width="1" width="110px" x="770" y="660" /><rect fill="rgb(255,255,255)" height="110px" stroke="black" stroke-width="1" width="110px" x="0" y="770" /><rect fill="rgb(255,255,255)" height="110px" stroke="black" stroke-width="1" width="110px" x="110" y="770" /><rect fill="rgb(255,255,255)" height="110px" stroke="black" stroke-width="1" width="110px" x="220" y="770" /><rect fill="rgb(255,255,255)" height="110px" stroke="black" stroke-width="1" width="110px" x="330" y="770" /><rect fill="rgb(0,0,0)" height="110px" stroke="black" stroke-width="1" width="110px" x="440" y="770" /><rect fill="rgb(0,0,0)" height="110px" stroke="black" stroke-width="1" width="110px" x="550" y="770" /><rect fill="rgb(0,0,0)" height="110px" stroke="black" stroke-width="1" width="110px" x="660" y="770" /><rect fill="rgb(0,0,0)" height="110px" stroke="black" stroke-width="1" width="110px" x="770" y="770" /><rect fill="rgb(255,255,255)" height="110px" stroke="black" stroke-width="1" width="110px" x="0" y="880" /><rect fill="rgb(255,255,255)" height="110px" stroke="black" stroke-width="1" width="110px" x="110" y="880" /><rect fill="rgb(255,255,255)" height="110px" stroke="black" stroke-width="1" width="110px" x="220" y="880" /><rect fill="rgb(255,255,255)" height="110px" stroke="black" stroke-width="1" width="110px" x="330" y="880" /><rect fill="rgb(0,0,0)" height="110px" stroke="black" stroke-width="1" width="110px" x="440" y="880" /><rect fill="rgb(0,0,0)" height="110px" stroke="black" stroke-width="1" width="110px" x="550" y="880" /><rect fill="rgb(0,0,0)" height="110px" stroke="black" stroke-width="1" width="110px" x="660" y="880" /><rect fill="rgb(0,0,0)" height="110px" stroke="black" stroke-width="1" width="110px" x="770" y="880" /><rect fill="rgb(255,255,255)" height="110px" stroke="black" stroke-width="1" width="110px" x="0" y="990" /><rect fill="rgb(255,255,255)" height="110px" stroke="black" stroke-width="1" width="110px" x="110" y="990" /><rect fill="rgb(255,255,255)" height="110px" stroke="black" stroke-width="1" width="110px" x="220" y="990" /><rect fill="rgb(255,255,255)" height="110px" stroke="black" stroke-width="1" width="110px" x="330" y="990" /><rect fill="rgb(0,0,0)" height="110px" stroke="black" stroke-width="1" width="110px" x="440" y="990" /><rect fill="rgb(0,0,0)" height="110px" stroke="black" stroke-width="1" width="110px" x="550" y="990" /><rect fill="rgb(0,0,0)" height="110px" stroke="black" stroke-width="1" width="110px" x="660" y="990" /><rect fill="rgb(0,0,0)" height="110px" stroke="black" stroke-width="1" width="110px" x="770" y="990" /></svg>